# Blender 3.5.0
# www.blender.org
mtllib mirror_shield.mtl
o shield_body
v -0.697152 0.541331 -2.841825
v 0.700254 2.796655 -2.757205
v 0.699979 0.541158 -2.841825
v 0.641124 0.620493 -4.573517
v 0.699798 -0.930119 -3.185706
v 0.670461 -0.384668 -4.132898
v -0.667803 -0.384503 -4.132898
v -0.638276 0.620650 -4.573517
v 0.670827 2.684888 -4.124478
v -0.667438 2.685051 -4.124478
v -0.696599 5.052320 -4.020899
v -0.696599 5.052322 -2.739340
v -0.696358 7.034919 -2.920313
v 0.700529 5.052152 -2.739340
v 0.700772 7.034749 -2.920313
v 0.671371 7.299135 -4.194844
v 0.701015 9.017346 -3.170197
v 0.642214 9.546121 -4.714250
v 0.671718 10.343647 -4.338963
v -0.637186 9.546276 -4.714250
v -0.666546 10.343809 -4.338963
v -0.695907 10.723336 -3.729142
v 0.701223 10.723166 -3.729142
v 0.000000 -17.423281 5.568133
v 3.291953 -15.653006 5.037703
v 3.426002 -16.278006 5.364099
v 6.463615 -13.955903 4.649830
v 6.726813 -14.524186 4.964414
v 9.148847 -11.792649 3.971859
v 9.521388 -12.250097 4.256831
v 10.480932 -10.432142 3.640311
v 10.898149 -10.842708 3.910477
v 11.431190 -8.834614 3.308762
v 11.896672 -9.181228 3.564122
v 12.406744 -6.650440 2.955788
v 12.911948 -6.914300 3.201391
v 12.914987 -4.447681 2.716167
v 13.440886 -4.628790 2.952012
v 13.600176 -0.294187 2.952012
v -0.696876 2.796827 -2.757205
v 0.700529 5.052149 -4.020899
v -0.666893 7.299297 -4.194844
v -6.726813 -14.524186 4.964414
v -9.248790 -19.710930 0.217628
v -9.521388 -12.250097 4.256831
v -12.944795 -16.815800 -0.369728
v -10.898149 -10.842708 3.910477
v -15.186938 -14.370681 -0.692632
v -11.896672 -9.181228 3.564122
v -16.547119 -12.159095 -0.913943
v -12.911948 -6.914300 3.201391
v -17.874193 -9.012724 -1.250311
v -13.440886 -4.628790 2.952012
v -18.452072 -6.105610 -1.457950
v 13.068045 -0.282676 2.716167
v 13.069271 3.656797 2.715988
v 13.601450 3.805701 2.951733
v 13.797024 6.523424 2.502734
v 14.481933 6.789057 2.729888
v 14.657843 8.091503 2.250701
v 15.237716 8.420988 2.467593
v 12.927229 12.906089 2.757395
v 13.453624 13.431625 2.994919
v 11.426613 12.462058 3.588392
v 0.000000 16.366425 5.229926
v -3.185067 13.990597 5.102189
v -3.314763 14.571977 5.428583
v -6.463615 12.188631 4.649828
v -6.726813 12.684952 4.964412
v -9.031824 11.573814 3.897900
v -9.399600 12.045101 4.181865
v -10.979527 11.963646 3.327648
v -11.426613 12.462058 3.588392
v -12.927229 12.906089 2.757395
v -13.453624 13.431625 2.994919
v -15.237716 8.420988 2.467593
v -9.148847 -11.792649 3.971859
v -9.521388 -12.250097 4.256831
v -10.480932 -10.432142 3.640311
v -10.898149 -10.842708 3.910477
v -11.431190 -8.834614 3.308762
v -11.896672 -9.181228 3.564122
v -12.406744 -6.650440 2.955788
v -12.911948 -6.914300 3.201391
v -12.914987 -4.447681 2.716167
v -13.440886 -4.628790 2.952012
v -13.600176 -0.294187 2.952012
v -1.207166 -3.794397 2.929192
v -0.697261 -0.642930 0.452103
v -1.631086 0.637219 2.929190
v -0.697093 0.760461 0.670952
v 1.634003 0.636821 2.929190
v 0.700037 0.760289 0.670952
v 0.699866 -0.643099 0.452103
v 0.666781 0.703981 -1.085437
v 0.666613 -0.561787 -1.366801
v 0.699798 -0.930119 -3.185706
v -0.697330 -0.929946 -3.185706
v -0.696117 9.017518 -3.170197
v 13.601450 3.805701 2.951733
v 18.700825 5.491092 -1.458261
v 13.600176 -0.294187 2.952012
v 18.699076 -0.145901 -1.457951
v 13.440886 -4.628790 2.952012
v 18.452072 -6.105610 -1.457950
v 12.911948 -6.914300 3.201391
v 17.874193 -9.012724 -1.250311
v 16.547119 -12.159095 -0.913943
v 6.726813 -14.524186 4.964414
v 9.248790 -19.710930 0.217628
v 3.426002 -16.278006 5.364099
v 5.149495 -21.923691 0.560680
v 0.000000 -17.423281 5.568133
v 0.000000 -23.696934 0.720303
v -3.426002 -16.278006 5.364099
v -5.149495 -21.923691 0.560680
v -9.248790 -19.710930 0.217628
v -6.726813 -14.524186 4.964414
v -6.463615 -13.955903 4.649830
v -3.426002 -16.278006 5.364099
v -3.291953 -15.653006 5.037703
v 0.000000 -16.741564 5.229928
v -1.205339 11.159706 2.929184
v -0.695947 10.127623 0.086561
v 1.210828 11.159412 2.929184
v 0.701183 10.127453 0.224040
v 1.634895 7.947460 2.929186
v 0.701015 8.770977 0.061119
v -1.630194 7.947860 2.929186
v -0.696113 8.771146 0.061119
v -0.663400 8.877024 -1.554539
v 0.668309 8.876875 -1.554539
v -0.696117 9.017518 -3.170197
v 0.701015 9.017346 -3.170197
v 9.248790 17.451893 0.258150
v 6.726813 12.684952 4.964412
v 6.796666 18.588692 0.504309
v 3.314763 14.571977 5.428583
v 4.515719 19.921366 0.593096
v 0.000000 17.032864 5.568130
v 0.000000 23.405130 0.720299
v -4.515719 19.921366 0.593096
v -9.248790 17.451893 0.258150
v -10.943681 17.054277 0.034213
v -9.248790 11.485822 0.409984
v -12.911214 16.819557 -0.263934
v -15.111355 11.557719 -0.569781
v -14.744704 17.099512 -0.675809
v -18.497580 18.725912 -1.422226
v -9.248790 17.451893 0.258150
v -9.248790 11.485822 0.409984
v -6.796666 18.588692 0.504309
v 0.000000 11.536132 1.596980
v 0.000000 18.588692 1.076057
v 6.796666 18.588692 0.504309
v 4.515719 19.921366 0.593096
v 12.944795 -16.815800 -0.369728
v 9.521388 -12.250097 4.256831
v 15.186938 -14.370681 -0.692632
v 10.898149 -10.842708 3.910477
v 11.896672 -9.181228 3.564122
v -0.664068 -0.561630 -1.366801
v -0.697152 0.541331 -2.841825
v 6.463615 12.188631 4.649828
v 3.185067 13.990597 5.102189
v 3.314763 14.571977 5.428583
v 0.000000 17.032864 5.568130
v 0.699979 0.541158 -2.841825
v -0.663903 0.704138 -1.085437
v 0.668487 10.219284 -1.821290
v 0.701223 10.723166 -3.729142
v -0.695907 10.723336 -3.729142
v -0.663221 10.219433 -1.821291
v -9.248790 -11.921418 0.417079
v 0.000000 -11.921418 1.290672
v -9.248788 -0.145902 0.632672
v 0.000000 -0.289692 1.889208
v -9.248790 11.485822 0.409984
v 0.000000 11.536132 1.596980
v -20.973921 11.629614 -1.861292
v -15.237716 8.420988 2.467593
v -19.742172 9.385847 -1.642897
v -14.481933 6.789057 2.729888
v -19.025894 7.438470 -1.501939
v -18.700825 5.491092 -1.458261
v 18.497580 18.725912 -1.422226
v 13.453624 13.431625 2.994919
v 14.744704 17.099512 -0.675809
v 11.426613 12.462058 3.588392
v 12.911214 16.819557 -0.263934
v 10.943681 17.054277 0.034213
v -9.248790 -11.921418 0.417079
v -9.248790 -19.710930 0.217628
v 0.000000 -11.921418 1.290672
v 0.000000 -19.771763 0.916153
v 9.248790 -19.710930 0.217628
v 5.149495 -21.923691 0.560680
v 9.248790 11.485822 0.409984
v 9.248788 -0.145902 0.632672
v 15.111355 11.557719 -0.569781
v 15.548980 -0.145901 -0.761077
v 18.700825 5.491092 -1.458261
v 18.699076 -0.145901 -1.457951
v -16.547119 -12.159095 -0.913943
v -17.874193 -9.012724 -1.250311
v -15.548980 -0.145901 -0.761077
v -18.452072 -6.105610 -1.457950
v -18.699076 -0.145901 -1.457951
v 19.025894 7.438470 -1.501939
v 14.481933 6.789057 2.729888
v 19.742172 9.385847 -1.642897
v 15.237716 8.420988 2.467593
v 20.973921 11.629614 -1.861292
v 19.025894 7.438470 -1.501939
v 19.742172 9.385847 -1.642897
v 20.973921 11.629614 -1.861292
v -15.186938 -14.370681 -0.692632
v -12.944795 -16.815800 -0.369728
v -9.248790 -19.710930 0.217628
v -5.149495 -21.923691 0.560680
v 0.000000 -23.696934 0.720303
v 9.248788 -0.145902 0.632672
v 9.248790 -11.921418 0.417079
v 15.548980 -0.145901 -0.761077
v 17.874193 -9.012724 -1.250311
v 18.452072 -6.105610 -1.457950
v 18.497580 18.725912 -1.422226
v 15.111355 11.557719 -0.569781
v 14.744704 17.099512 -0.675809
v 12.911214 16.819557 -0.263934
v -20.973921 11.629614 -1.861292
v -19.742172 9.385847 -1.642897
v -15.111355 11.557719 -0.569781
v -19.025894 7.438470 -1.501939
v -18.700825 5.491092 -1.458261
v -12.911214 16.819557 -0.263934
v -11.426613 12.462058 3.588392
v -14.744704 17.099512 -0.675809
v -13.453624 13.431625 2.994919
v -18.497580 18.725912 -1.422226
v 10.979527 11.963646 3.327648
v 9.031824 11.573814 3.897900
v 9.399600 12.045101 4.181865
v 6.726813 12.684952 4.964412
v -15.548980 -0.145901 -0.761077
v -9.248788 -0.145902 0.632672
v -9.248790 11.485822 0.409984
v -13.601450 3.805701 2.951733
v -13.069271 3.656797 2.715988
v -13.797024 6.523424 2.502734
v -13.068045 -0.282676 2.716167
v 1.296138 3.930522 6.904845
v 0.000000 2.003618 6.909285
v 0.545969 3.442115 6.403834
v 0.000000 2.630450 6.419151
v -1.772827 4.060027 5.946451
v -1.296138 3.930523 6.904845
v -3.545651 1.424457 5.990672
v -2.592276 2.003618 6.646197
v 1.772827 4.060024 5.946451
v 1.296138 3.930522 6.904845
v 0.000000 6.695592 5.791679
v 0.000000 5.857428 6.817397
v -18.699076 -0.145901 -1.457951
v -14.481933 6.789057 2.729888
v -14.657843 8.091503 2.250701
v 16.547119 -12.159095 -0.913943
v 15.186938 -14.370681 -0.692632
v 12.944795 -16.815800 -0.369728
v 1.209001 -3.794691 2.929192
v 9.248790 17.451893 0.258150
v 9.248790 11.485822 0.409984
v 10.943681 17.054277 0.034213
v -6.796666 18.588692 0.504309
v -3.314763 14.571977 5.428583
v -9.248790 17.451893 0.258150
v -6.726813 12.684952 4.964412
v -0.697330 -0.929946 -3.185706
v -13.601450 3.805701 2.951733
v -13.600176 -0.294187 2.952012
v -18.700825 5.491092 -1.458261
v -18.699076 -0.145901 -1.457951
v -6.726813 12.684952 4.964412
v -9.399600 12.045101 4.181865
v -9.248790 17.451893 0.258150
v -10.943681 17.054277 0.034213
v -18.497580 18.725912 -1.422226
v -13.453624 13.431625 2.994919
v -20.973921 11.629614 -1.861292
v -15.237716 8.420988 2.467593
v 9.399600 12.045101 4.181865
v 9.248790 17.451893 0.258150
v 15.237716 8.420988 2.467593
v 13.453624 13.431625 2.994919
v 20.973921 11.629614 -1.861292
v 18.497580 18.725912 -1.422226
v 13.601450 3.805701 2.951733
v 18.700825 5.491092 -1.458261
v 9.248790 -11.921418 0.417079
v 9.248788 -0.145902 0.632672
v 9.248790 11.485822 0.409984
v -4.515719 19.921366 0.593096
v 0.000000 23.405130 0.720299
v 6.726813 -14.524186 4.964414
v 9.248790 -19.710930 0.217628
v 9.248790 11.485822 0.409984
v 9.248790 17.451893 0.258150
v 0.000000 6.695592 5.791679
v 0.000000 5.857428 6.817397
v -1.772827 4.060027 5.946451
v -1.296138 3.930523 6.904845
v 0.000000 1.424457 5.990672
v -3.545651 1.424457 5.990672
v 0.000000 2.003618 6.909285
v -2.592276 2.003618 6.646197
v 1.772827 4.060024 5.946451
v 3.545647 1.424457 5.990672
v 1.296138 3.930522 6.904845
v 2.592276 2.003618 6.646197
v -1.296138 3.930523 6.904845
v 1.296138 3.930522 6.904845
v -0.545969 3.442116 6.403834
v 0.545969 3.442115 6.403834
v 0.000000 1.424457 5.990672
v 0.000000 2.003618 6.909285
v 3.545647 1.424457 5.990672
v 2.592276 2.003618 6.646197
v 0.000000 2.003618 6.909285
v -1.296138 3.930523 6.904845
v 0.000000 2.630450 6.419151
v -0.545969 3.442116 6.403834
v -9.248788 -0.145902 0.632672
v 6.726813 12.684952 4.964412
v 9.248790 -19.710930 0.217628
v 18.699076 -0.145901 -1.457951
v 1.296138 3.930522 6.904845
v -1.296138 3.930523 6.904845
v 0.000000 5.857428 6.817397
v -13.601450 3.805701 2.951733
v 2.592276 2.003618 6.646197
v 0.000000 2.003618 6.909285
v 1.296138 3.930522 6.904845
v -2.592276 2.003618 6.646197
v -1.296138 3.930523 6.904845
v 0.000000 2.003618 6.909285
v -6.726813 -14.524186 4.964414
vn 0.9181 0.2942 0.2655
vn 0.7139 -0.0196 0.6999
vn -0.9181 0.2944 0.2655
vn 0.7140 -0.0649 -0.6972
vn 0.7309 -0.6729 -0.1139
vn 0.4625 -0.5819 -0.6689
vn -0.4626 -0.5819 -0.6689
vn -0.7140 -0.0647 -0.6972
vn 0.7016 0.0865 -0.7073
vn -0.7016 0.0870 -0.7072
vn -0.7039 -0.0117 -0.7102
vn -0.7114 0.0296 0.7022
vn -0.7143 0.0799 0.6953
vn 0.7114 0.0294 0.7022
vn 0.7143 0.0797 0.6953
vn 0.7009 -0.1035 -0.7057
vn 0.9257 -0.2716 0.2631
vn 0.7138 0.0667 -0.6972
vn 0.4578 0.5774 -0.6760
vn -0.7138 0.0669 -0.6972
vn -0.4577 0.5774 -0.6761
vn -0.7374 0.6666 -0.1090
vn 0.7376 0.6664 -0.1090
vn -0.1150 0.4396 0.8908
vn -0.1051 0.4417 0.8910
vn -0.0000 0.4455 0.8953
vn -0.1249 0.4364 0.8911
vn -0.1283 0.4379 0.8898
vn -0.1626 0.4184 0.8936
vn -0.1933 0.3973 0.8971
vn -0.2095 0.3818 0.9002
vn -0.2287 0.3598 0.9046
vn -0.2594 0.3272 0.9087
vn -0.2566 0.3258 0.9100
vn -0.3251 0.2310 0.9170
vn -0.3239 0.2306 0.9176
vn -0.3793 0.0984 0.9200
vn -0.3788 0.0984 0.9202
vn -0.4050 0.0075 0.9143
vn -0.7140 -0.0195 0.6999
vn 0.7039 -0.0119 -0.7102
vn -0.7009 -0.1033 -0.7057
vn -0.5337 -0.3726 0.7592
vn -0.4330 -0.4812 0.7622
vn -0.5639 -0.3086 0.7660
vn -0.5948 -0.2444 0.7658
vn -0.6354 -0.1208 0.7627
vn -0.6529 -0.0409 0.7563
vn -0.6522 -0.0493 0.7565
vn -0.4182 0.0593 0.9064
vn -0.4069 0.1187 0.9057
vn -0.4112 0.2402 0.8793
vn -0.4317 0.3013 0.8502
vn -0.4050 0.1850 0.8954
vn -0.3451 -0.0062 0.9386
vn 0.1413 -0.5202 0.8423
vn 0.1421 -0.5223 0.8408
vn 0.4405 -0.6966 0.5663
vn 0.2114 -0.4492 0.8680
vn 0.2072 -0.4434 0.8721
vn -0.0000 -0.4459 0.8951
vn 0.0589 -0.5065 0.8603
vn -0.0201 -0.5428 0.8396
vn -0.1795 -0.6067 0.7744
vn -0.2573 -0.6347 0.7286
vn -0.3871 -0.6787 0.6241
vn -0.4405 -0.6966 0.5663
vn -0.1413 -0.5202 0.8423
vn -0.1421 -0.5223 0.8408
vn 0.3451 -0.0062 0.9386
vn 0.2095 0.3818 0.9002
vn 0.1933 0.3973 0.8971
vn 0.1626 0.4184 0.8936
vn 0.2286 0.3597 0.9046
vn 0.2594 0.3272 0.9087
vn 0.2566 0.3258 0.9100
vn 0.3251 0.2310 0.9170
vn 0.3239 0.2306 0.9176
vn 0.3793 0.0984 0.9200
vn 0.3788 0.0984 0.9202
vn 0.4050 0.0075 0.9143
vn -0.8505 0.4399 -0.2885
vn -0.7867 -0.4509 -0.4216
vn -0.5870 -0.4394 -0.6799
vn -0.6763 0.7247 -0.1318
vn 0.8506 0.4397 -0.2884
vn 0.6765 0.7245 -0.1318
vn 0.7866 -0.4510 -0.4216
vn 0.7075 0.7054 -0.0437
vn 0.7094 -0.7027 0.0548
vn 0.7309 -0.6729 -0.1140
vn -0.7310 -0.6728 -0.1140
vn -0.9258 -0.2714 0.2631
vn 0.6543 -0.0081 0.7562
vn 0.6685 -0.0611 0.7412
vn 0.6661 -0.0729 0.7423
vn 0.6549 -0.0171 0.7556
vn 0.6529 -0.0409 0.7563
vn 0.6521 -0.0494 0.7565
vn 0.6354 -0.1208 0.7627
vn 0.5948 -0.2444 0.7658
vn 0.2988 -0.5632 0.7704
vn 0.4330 -0.4812 0.7622
vn 0.2988 -0.5633 0.7704
vn -0.0000 -0.6080 0.7939
vn -0.2988 -0.5632 0.7704
vn -0.2988 -0.5633 0.7704
vn 0.1282 0.4379 0.8899
vn 0.1249 0.4362 0.8911
vn 0.1150 0.4396 0.8908
vn 0.1051 0.4417 0.8910
vn -0.0000 0.4444 0.8958
vn 0.6278 0.6838 -0.3719
vn -0.7928 0.5639 -0.2314
vn -0.6202 0.6921 -0.3693
vn 0.7911 0.5669 -0.2298
vn 0.8607 -0.3581 -0.3619
vn 0.6926 -0.6823 -0.2338
vn -0.8570 -0.3696 -0.3591
vn -0.6867 -0.6879 -0.2351
vn -0.7078 -0.7044 -0.0535
vn 0.7078 -0.7044 -0.0532
vn 0.9257 -0.2717 0.2631
vn 0.3689 0.5640 0.7388
vn 0.3648 0.5567 0.7463
vn 0.2878 0.5748 0.7660
vn 0.4020 0.5582 0.7258
vn 0.4143 0.5567 0.7201
vn -0.0000 0.6073 0.7944
vn -0.0000 0.6055 0.7959
vn -0.4143 0.5567 0.7201
vn 0.1411 -0.0220 -0.9897
vn 0.1446 -0.0227 -0.9892
vn 0.1241 -0.0252 -0.9919
vn 0.1771 -0.0216 -0.9840
vn 0.2040 -0.0045 -0.9790
vn 0.1982 -0.0318 -0.9797
vn 0.1985 -0.0227 -0.9798
vn 0.1015 -0.0516 -0.9935
vn 0.1412 -0.0220 -0.9897
vn 0.1241 -0.0252 -0.9920
vn -0.0000 -0.0423 -0.9991
vn -0.0000 -0.0748 -0.9972
vn -0.1015 -0.0516 -0.9935
vn -0.0841 -0.0752 -0.9936
vn 0.5639 -0.3086 0.7660
vn 0.5337 -0.3726 0.7592
vn -0.7096 -0.7025 0.0548
vn -0.2114 -0.4493 0.8680
vn -0.2072 -0.4434 0.8721
vn -0.0589 -0.5065 0.8603
vn -0.0000 -0.4525 0.8917
vn -0.7073 0.7056 -0.0437
vn 0.7079 0.6981 0.1075
vn -0.7087 0.6973 0.1072
vn 0.1686 0.0039 -0.9857
vn -0.0000 0.0360 -0.9994
vn 0.1677 0.0088 -0.9858
vn -0.0000 0.0064 -1.0000
vn 0.1411 -0.0221 -0.9897
vn -0.0000 -0.0422 -0.9991
vn -0.6819 -0.2371 0.6920
vn -0.6523 -0.1353 0.7458
vn -0.6141 -0.0167 0.7890
vn -0.6822 -0.1621 0.7129
vn -0.6852 -0.1495 0.7128
vn -0.6685 -0.0610 0.7412
vn -0.0879 0.7054 0.7034
vn 0.2233 0.4862 0.8448
vn 0.2150 0.4966 0.8409
vn 0.0708 0.6530 0.7540
vn 0.1308 0.6313 0.7645
vn 0.1792 0.6053 0.7755
vn -0.0000 0.0361 -0.9993
vn 0.1040 0.0208 -0.9944
vn -0.0000 0.0274 -0.9996
vn -0.1040 0.0208 -0.9944
vn -0.0616 0.0172 -0.9979
vn -0.2039 -0.0045 -0.9790
vn -0.1686 0.0039 -0.9857
vn -0.1411 -0.0220 -0.9897
vn -0.2167 0.0092 -0.9762
vn -0.2206 0.0072 -0.9753
vn -0.2160 0.0045 -0.9764
vn 0.1793 -0.0319 -0.9833
vn 0.1796 -0.0054 -0.9837
vn 0.2167 0.0092 -0.9762
vn 0.2007 -0.0042 -0.9796
vn 0.2160 0.0044 -0.9764
vn 0.6819 -0.2371 0.6920
vn 0.6822 -0.1621 0.7129
vn 0.6852 -0.1495 0.7128
vn 0.6523 -0.1353 0.7458
vn 0.6141 -0.0167 0.7890
vn -0.2191 0.0125 -0.9756
vn -0.2182 0.0170 -0.9758
vn -0.2152 0.0043 -0.9766
vn 0.1758 0.0198 -0.9842
vn 0.1748 0.0217 -0.9844
vn 0.1040 0.0207 -0.9944
vn 0.0616 0.0172 -0.9979
vn -0.0000 0.0498 -0.9988
vn -0.1677 0.0088 -0.9858
vn -0.1793 -0.0319 -0.9833
vn -0.2007 -0.0042 -0.9796
vn -0.2040 -0.0045 -0.9790
vn -0.1985 -0.0227 -0.9798
vn -0.1982 -0.0318 -0.9797
vn -0.1771 -0.0216 -0.9840
vn 0.2039 -0.0045 -0.9790
vn 0.2182 0.0170 -0.9758
vn 0.2152 0.0043 -0.9766
vn 0.2191 0.0125 -0.9756
vn 0.2206 0.0072 -0.9753
vn 0.0879 0.7054 0.7034
vn -0.0708 0.6530 0.7540
vn -0.1308 0.6313 0.7644
vn -0.2233 0.4862 0.8448
vn -0.2150 0.4966 0.8409
vn 0.2572 -0.6347 0.7287
vn 0.1795 -0.6067 0.7744
vn 0.3871 -0.6787 0.6241
vn 0.0201 -0.5428 0.8396
vn 0.4182 0.0594 0.9064
vn 0.4069 0.1187 0.9057
vn 0.4112 0.2402 0.8793
vn -0.6764 0.4591 0.5760
vn -0.6763 0.4591 0.5760
vn -0.7236 0.4626 0.5122
vn -0.7236 0.4626 0.5123
vn 0.7381 0.5194 0.4306
vn 0.2160 0.0045 -0.9764
vn 0.4317 0.3013 0.8502
vn 0.4050 0.1850 0.8954
vn -0.1758 0.0198 -0.9842
vn -0.1796 -0.0054 -0.9837
vn -0.1748 0.0217 -0.9844
vn 0.5869 -0.4396 -0.6799
vn -0.1445 -0.0228 -0.9892
vn -0.1241 -0.0252 -0.9919
vn -0.4020 0.5582 0.7258
vn -0.3689 0.5640 0.7388
vn -0.3648 0.5567 0.7463
vn -0.2878 0.5748 0.7660
vn -0.6685 -0.0611 0.7412
vn -0.6543 -0.0081 0.7562
vn -0.6661 -0.0729 0.7423
vn -0.6549 -0.0171 0.7556
vn -0.2877 0.5748 0.7660
vn -0.2624 0.5792 0.7718
vn -0.1792 0.6053 0.7755
vn -0.2150 0.4967 0.8409
vn -0.6523 -0.1354 0.7458
vn 0.2624 0.5792 0.7718
vn 0.2877 0.5748 0.7660
vn 0.6523 -0.1354 0.7458
vn 0.2150 0.4967 0.8409
vn 0.6685 -0.0610 0.7412
vn 0.6661 -0.0728 0.7423
vn -0.1412 -0.0220 -0.9897
vn 0.0841 -0.0752 -0.9936
vn -0.0000 -0.0737 -0.9973
vn -0.1241 -0.0252 -0.9920
vn -0.7381 0.5194 0.4306
vn -0.0258 -0.7976 0.6026
vn 0.7236 0.4626 0.5122
vn 0.7236 0.4626 0.5123
vn -0.0000 -0.7161 0.6980
vn 0.0258 -0.7976 0.6026
vn 0.6764 0.4591 0.5760
vn 0.6763 0.4591 0.5760
vn -0.1040 0.0207 -0.9944
vn -0.2160 0.0044 -0.9764
vn -0.0000 0.0453 0.9990
vn -0.6661 -0.0728 0.7423
vn 0.1008 -0.0655 0.9928
vn -0.1008 -0.0655 0.9928
vt 0.671875 0.113281
vt 0.546875 0.113281
vt 0.671875 0.113281
vt 0.761719 0.027344
vt 0.960938 0.078125
vt 0.859375 0.050781
vt 0.859375 0.050781
vt 0.761719 0.027344
vt 0.593750 0.027344
vt 0.593750 0.027344
vt 0.421875 0.027344
vt 0.421875 0.113281
vt 0.546875 0.113281
vt 0.421875 0.113281
vt 0.546875 0.113281
vt 0.593750 0.027344
vt 0.671875 0.113281
vt 0.761719 0.027344
vt 0.859375 0.050781
vt 0.761719 0.027344
vt 0.859375 0.050781
vt 0.960938 0.078125
vt 0.960938 0.078125
vt 0.992188 0.625000
vt 0.933594 0.710938
vt 0.949219 0.625000
vt 0.894531 0.710938
vt 0.910156 0.625000
vt 0.816406 0.710938
vt 0.832031 0.625000
vt 0.781250 0.710938
vt 0.789062 0.625000
vt 0.742188 0.710938
vt 0.750000 0.625000
vt 0.683594 0.710938
vt 0.691406 0.625000
vt 0.625000 0.710938
vt 0.632812 0.625000
vt 0.503906 0.625000
vt 0.546875 0.113281
vt 0.421875 0.027344
vt 0.593750 0.027344
vt 0.500000 0.988281
vt 0.500000 0.500000
vt 0.500000 0.988281
vt 0.500000 0.500000
vt 0.500000 0.988281
vt 0.500000 0.500000
vt 0.500000 0.988281
vt 0.500000 0.500000
vt 0.500000 0.988281
vt 0.500000 0.500000
vt 0.500000 0.988281
vt 0.500000 0.500000
vt 0.507812 0.710938
vt 0.390625 0.710938
vt 0.386719 0.625000
vt 0.308594 0.710938
vt 0.300781 0.625000
vt 0.265625 0.710938
vt 0.253906 0.625000
vt 0.125000 0.710938
vt 0.105469 0.625000
vt 0.125000 0.625000
vt 0.011719 0.710938
vt 0.074219 0.710938
vt 0.054688 0.625000
vt 0.136719 0.710938
vt 0.121094 0.625000
vt 0.156250 0.710938
vt 0.140625 0.625000
vt 0.140625 0.710938
vt 0.125000 0.625000
vt 0.125000 0.710938
vt 0.105469 0.625000
vt 0.253906 0.625000
vt 0.816406 0.710938
vt 0.832031 0.625000
vt 0.781250 0.710938
vt 0.789062 0.625000
vt 0.742188 0.710938
vt 0.750000 0.625000
vt 0.683594 0.710938
vt 0.691406 0.625000
vt 0.625000 0.710938
vt 0.632812 0.625000
vt 0.503906 0.625000
vt 0.023438 0.015625
vt 0.312500 0.015625
vt 0.023438 0.125000
vt 0.312500 0.125000
vt 0.023438 0.125000
vt 0.312500 0.125000
vt 0.312500 0.015625
vt 0.648438 0.125000
vt 0.648438 0.015625
vt 0.984375 0.015625
vt 0.984375 0.015625
vt 0.671875 0.113281
vt 0.500000 0.988281
vt 0.500000 0.500000
vt 0.500000 0.988281
vt 0.500000 0.500000
vt 0.500000 0.988281
vt 0.500000 0.500000
vt 0.500000 0.988281
vt 0.500000 0.500000
vt 0.500000 0.500000
vt 0.835938 0.988281
vt 0.835938 0.500000
vt 0.417969 0.988281
vt 0.472656 0.500000
vt 0.000000 0.988281
vt 0.109375 0.500000
vt 0.417969 0.988281
vt 0.472656 0.500000
vt 0.835938 0.500000
vt 0.910156 0.625000
vt 0.894531 0.710938
vt 0.949219 0.625000
vt 0.933594 0.710938
vt 0.972656 0.710938
vt 0.023438 0.015625
vt 0.312500 0.015625
vt 0.023438 0.015625
vt 0.312500 0.015625
vt 0.023438 0.125000
vt 0.312500 0.125000
vt 0.023438 0.125000
vt 0.312500 0.125000
vt 0.648438 0.125000
vt 0.648438 0.125000
vt 0.984375 0.125000
vt 0.984375 0.125000
vt 0.796875 0.500000
vt 0.773438 0.976562
vt 0.621094 0.519531
vt 0.398438 0.976562
vt 0.441406 0.558594
vt 0.023438 0.976562
vt 0.085938 0.613281
vt 0.441406 0.558594
vt 0.984375 0.515625
vt 0.628906 0.515625
vt 0.875000 0.027344
vt 0.261719 0.507812
vt 0.929688 0.222656
vt 0.441406 0.507812
vt 0.750000 0.515625
vt 0.011719 0.515625
vt 0.011719 0.027344
vt 0.253906 0.507812
vt 0.984375 0.027344
vt 0.984375 0.316406
vt 0.253906 0.507812
vt 0.500000 0.515625
vt 0.500000 0.500000
vt 0.500000 0.988281
vt 0.500000 0.500000
vt 0.500000 0.988281
vt 0.500000 0.988281
vt 0.648438 0.015625
vt 0.984375 0.125000
vt 0.136719 0.710938
vt 0.074219 0.710938
vt 0.054688 0.625000
vt -0.003906 0.625000
vt 0.984375 0.125000
vt 0.648438 0.125000
vt 0.648438 0.015625
vt 0.984375 0.015625
vt 0.984375 0.015625
vt 0.648438 0.015625
vt 1.000000 0.300781
vt 1.000000 0.000000
vt 0.000000 0.300781
vt 0.000000 0.000000
vt 1.000000 0.300781
vt 1.000000 0.000000
vt 0.949219 0.500000
vt 0.949219 0.875000
vt 0.886719 0.500000
vt 0.886719 0.937500
vt 0.554688 0.500000
vt 0.222656 0.500000
vt 0.035156 0.613281
vt -0.035156 0.976562
vt 0.445312 0.539062
vt 0.304688 0.976562
vt 0.648438 0.500000
vt 0.734375 0.500000
vt 0.011719 0.027344
vt 0.011719 0.503906
vt 0.984375 0.027344
vt 0.984375 0.351562
vt 0.011719 0.503906
vt 0.500000 0.503906
vt 0.984375 0.027344
vt 0.011719 0.027344
vt 0.984375 0.222656
vt 0.011719 0.351562
vt 0.476562 0.515625
vt 0.011719 0.515625
vt 0.011719 0.523438
vt 0.257812 0.507812
vt 0.984375 0.351562
vt 0.507812 0.507812
vt 0.984375 0.515625
vt 0.554688 0.500000
vt 0.886719 0.937500
vt 0.886719 0.500000
vt 0.949219 0.875000
vt 0.949219 0.500000
vt 0.640625 0.515625
vt 0.804688 0.515625
vt 0.984375 0.515625
vt 0.011719 0.523438
vt 0.015625 0.523438
vt 0.023438 0.523438
vt 0.500000 0.503906
vt 0.984375 0.515625
vt 0.984375 0.027344
vt 0.011719 0.027344
vt 0.984375 0.351562
vt 0.257812 0.507812
vt 0.507812 0.507812
vt 0.750000 0.515625
vt 0.929688 0.222656
vt 0.441406 0.507812
vt 0.261719 0.507812
vt 0.984375 0.515625
vt 0.804688 0.515625
vt 0.984375 0.222656
vt 0.640625 0.515625
vt 0.476562 0.515625
vt 0.648438 0.515625
vt 0.304688 0.976562
vt 0.445312 0.539062
vt -0.035156 0.976562
vt 0.035156 0.613281
vt 0.140625 0.710938
vt 0.156250 0.710938
vt 0.140625 0.625000
vt 0.121094 0.625000
vt 0.011719 0.351562
vt 0.011719 0.027344
vt 0.984375 0.027344
vt 0.386719 0.625000
vt 0.390625 0.710938
vt 0.308594 0.710938
vt 0.507812 0.710938
vt 0.964844 0.968750
vt 0.960938 0.960938
vt 0.960938 0.964844
vt 0.960938 0.964844
vt 0.953125 0.968750
vt 0.957031 0.968750
vt 0.949219 0.960938
vt 0.953125 0.960938
vt 0.964844 0.968750
vt 0.964844 0.968750
vt 0.960938 0.976562
vt 0.960938 0.972656
vt 0.011719 0.515625
vt 0.300781 0.625000
vt 0.265625 0.710938
vt 0.011719 0.523438
vt 0.011719 0.523438
vt 0.015625 0.523438
vt 0.023438 0.015625
vt 0.984375 0.515625
vt 0.875000 0.027344
vt 0.628906 0.515625
vt 0.621094 0.519531
vt 0.398438 0.976562
vt 0.796875 0.507812
vt 0.773438 0.976562
vt 0.960938 0.078125
vt 0.500000 0.988281
vt 0.500000 0.988281
vt 0.500000 0.500000
vt 0.500000 0.500000
vt 0.824219 0.976562
vt 0.648438 0.976562
vt 0.824219 0.507812
vt 0.734375 0.507812
vt 0.886719 0.539062
vt 0.886719 0.988281
vt 0.023438 0.500000
vt 0.023438 0.988281
vt 0.648438 0.976562
vt 0.824219 0.500000
vt 0.023438 0.988281
vt 0.886719 0.988281
vt 0.023438 0.500000
vt 0.886719 0.539062
vt 0.222656 0.988281
vt 0.222656 0.500000
vt 1.000000 0.300781
vt 0.000000 0.300781
vt 1.000000 0.300781
vt 0.500000 0.515625
vt 0.984375 0.515625
vt 0.500000 0.988281
vt 0.500000 0.500000
vt 0.011719 0.027344
vt 0.011719 0.515625
vt 0.960938 0.976562
vt 0.960938 0.972656
vt 0.953125 0.968750
vt 0.957031 0.968750
vt 0.960938 0.960938
vt 0.949219 0.960938
vt 0.960938 0.960938
vt 0.953125 0.960938
vt 0.964844 0.968750
vt 0.968750 0.960938
vt 0.964844 0.968750
vt 0.964844 0.960938
vt 0.957031 0.968750
vt 0.964844 0.968750
vt 0.957031 0.964844
vt 0.960938 0.964844
vt 0.960938 0.960938
vt 0.960938 0.960938
vt 0.968750 0.960938
vt 0.964844 0.960938
vt 0.960938 0.960938
vt 0.957031 0.968750
vt 0.960938 0.964844
vt 0.957031 0.964844
vt 0.984375 0.027344
vt 0.824219 0.976562
vt 0.023438 0.523438
vt 0.984375 0.515625
vt 0.964844 0.968750
vt 0.957031 0.968750
vt 0.960938 0.972656
vt 0.222656 0.988281
vt 0.964844 0.960938
vt 0.960938 0.960938
vt 0.964844 0.968750
vt 0.953125 0.960938
vt 0.957031 0.968750
vt 0.960938 0.960938
vt 0.835938 0.988281
s 1
usemtl VshiMAMAT
f 3/3/1 2/2/2 1/1/3
f 3/3/1 4/4/4 2/2/2
f 5/5/5 4/4/4 3/3/1
f 5/5/5 6/6/6 4/4/4
f 7/7/7 6/6/6 5/5/5
f 7/7/7 4/4/4 6/6/6
f 8/8/8 4/4/4 7/7/7
f 8/8/8 9/9/9 4/4/4
f 10/10/10 9/9/9 8/8/8
f 10/10/10 11/11/11 9/9/9
f 12/12/12 11/11/11 10/10/10
f 12/12/12 13/13/13 11/11/11
f 14/14/14 13/13/13 12/12/12
f 14/14/14 15/15/15 13/13/13
f 16/16/16 15/15/15 14/14/14
f 16/16/16 17/17/17 15/15/15
f 18/18/18 17/17/17 16/16/16
f 18/18/18 19/19/19 17/17/17
f 20/20/20 19/19/19 18/18/18
f 20/20/20 21/21/21 19/19/19
f 22/22/22 21/21/21 20/20/20
f 22/22/22 19/19/19 21/21/21
f 23/23/23 19/19/19 22/22/22
f 23/23/23 17/17/17 19/19/19
f 26/26/24 25/25/25 24/24/26
f 26/26/24 27/27/27 25/25/25
f 28/28/28 27/27/27 26/26/24
f 28/28/28 29/29/29 27/27/27
f 30/30/30 29/29/29 28/28/28
f 30/30/30 31/31/31 29/29/29
f 32/32/32 31/31/31 30/30/30
f 32/32/32 33/33/33 31/31/31
f 34/34/34 33/33/33 32/32/32
f 34/34/34 35/35/35 33/33/33
f 36/36/36 35/35/35 34/34/34
f 36/36/36 37/37/37 35/35/35
f 38/38/38 37/37/37 36/36/36
f 38/38/38 39/39/39 37/37/37
f 1/1/3 8/8/8 7/7/7
f 1/1/3 10/10/10 8/8/8
f 40/40/40 10/10/10 1/1/3
f 40/40/40 12/12/12 10/10/10
f 2/2/2 12/12/12 40/40/40
f 2/2/2 14/14/14 12/12/12
f 41/41/41 14/14/14 2/2/2
f 41/41/41 16/16/16 14/14/14
f 42/42/42 16/16/16 41/41/41
f 42/42/42 18/18/18 16/16/16
f 20/20/20 18/18/18 42/42/42
f 45/45/43 44/44/44 43/43/44
f 45/45/43 46/46/43 44/44/44
f 47/47/45 46/46/43 45/45/43
f 47/47/45 48/48/45 46/46/43
f 49/49/46 48/48/45 47/47/45
f 49/49/46 50/50/46 48/48/45
f 51/51/47 50/50/46 49/49/46
f 51/51/47 52/52/47 50/50/46
f 53/53/48 52/52/47 51/51/47
f 53/53/48 54/54/49 52/52/47
f 39/39/39 55/55/39 37/37/37
f 39/39/39 56/56/50 55/55/39
f 57/57/51 56/56/50 39/39/39
f 57/57/51 58/58/52 56/56/50
f 59/59/53 58/58/52 57/57/51
f 59/59/53 60/60/54 58/58/52
f 61/61/55 60/60/54 59/59/53
f 61/61/55 62/62/56 60/60/54
f 63/63/57 62/62/56 61/61/55
f 63/63/57 64/64/58 62/62/56
f 67/67/59 66/66/60 65/65/61
f 67/67/59 68/68/62 66/66/60
f 69/69/63 68/68/62 67/67/59
f 69/69/63 70/70/64 68/68/62
f 71/71/65 70/70/64 69/69/63
f 71/71/65 72/72/66 70/70/64
f 73/73/67 72/72/66 71/71/65
f 73/73/67 74/74/68 72/72/66
f 75/75/69 74/74/68 73/73/67
f 75/75/69 76/76/70 74/74/68
f 79/79/71 78/78/72 77/77/73
f 79/79/71 80/80/74 78/78/72
f 81/81/75 80/80/74 79/79/71
f 81/81/75 82/82/76 80/80/74
f 83/83/77 82/82/76 81/81/75
f 83/83/77 84/84/78 82/82/76
f 85/85/79 84/84/78 83/83/77
f 85/85/79 86/86/80 84/84/78
f 87/87/81 86/86/80 85/85/79
f 90/90/82 89/89/83 88/88/84
f 90/90/82 91/91/85 89/89/83
f 92/92/86 91/91/85 90/90/82
f 92/92/86 93/93/87 91/91/85
f 94/94/88 93/93/87 92/92/86
f 94/94/88 95/95/89 93/93/87
f 96/96/90 95/95/89 94/94/88
f 96/96/90 97/97/91 95/95/89
f 98/98/92 97/97/91 96/96/90
f 20/20/20 99/99/93 22/22/22
f 20/20/20 13/13/13 99/99/93
f 42/42/42 13/13/13 20/20/20
f 42/42/42 11/11/11 13/13/13
f 41/41/41 11/11/11 42/42/42
f 41/41/41 9/9/9 11/11/11
f 2/2/2 9/9/9 41/41/41
f 2/2/2 4/4/4 9/9/9
f 102/102/94 101/101/95 100/100/96
f 102/102/94 103/103/97 101/101/95
f 104/104/98 103/103/97 102/102/94
f 104/104/98 105/105/99 103/103/97
f 106/106/100 105/105/99 104/104/98
f 106/106/100 107/107/100 105/105/99
f 108/108/101 107/107/100 106/106/100
f 111/111/102 110/110/103 109/109/103
f 111/111/102 112/112/104 110/110/103
f 113/113/105 112/112/104 111/111/102
f 113/113/105 114/114/105 112/112/104
f 115/115/106 114/114/105 113/113/105
f 115/115/106 116/116/107 114/114/105
f 117/117/44 116/116/107 115/115/106
f 118/118/108 77/77/73 78/78/72
f 118/118/108 119/119/109 77/77/73
f 120/120/110 119/119/109 118/118/108
f 120/120/110 121/121/111 119/119/109
f 24/24/26 121/121/111 120/120/110
f 24/24/26 122/122/112 121/121/111
f 25/25/25 122/122/112 24/24/26
f 125/125/113 124/124/114 123/123/115
f 125/125/113 126/126/116 124/124/114
f 127/127/117 126/126/116 125/125/113
f 127/127/117 128/128/118 126/126/116
f 129/129/119 128/128/118 127/127/117
f 129/129/119 130/130/120 128/128/118
f 124/124/114 129/129/119 123/123/115
f 124/124/114 130/130/120 129/129/119
f 131/131/121 130/130/120 124/124/114
f 131/131/121 132/132/122 130/130/120
f 133/133/93 132/132/122 131/131/121
f 133/133/93 134/134/123 132/132/122
f 137/137/124 136/136/125 135/135/126
f 137/137/124 138/138/127 136/136/125
f 139/139/128 138/138/127 137/137/124
f 139/139/128 140/140/129 138/138/127
f 141/141/130 140/140/129 139/139/128
f 141/141/130 142/142/131 140/140/129
f 145/145/132 144/144/133 143/143/134
f 145/145/132 146/146/135 144/144/133
f 147/147/136 146/146/135 145/145/132
f 147/147/136 148/148/137 146/146/135
f 149/149/138 148/148/137 147/147/136
f 152/152/139 151/151/140 150/150/141
f 152/152/139 153/153/142 151/151/140
f 154/154/143 153/153/142 152/152/139
f 154/154/143 155/155/144 153/153/142
f 156/156/145 155/155/144 154/154/143
f 159/159/146 158/158/147 157/157/147
f 159/159/146 160/160/146 158/158/147
f 108/108/101 160/160/146 159/159/146
f 108/108/101 161/161/101 160/160/146
f 106/106/100 161/161/101 108/108/101
f 89/89/83 94/94/88 88/88/84
f 89/89/83 96/96/90 94/94/88
f 162/162/148 96/96/90 89/89/83
f 162/162/148 98/98/92 96/96/90
f 163/163/3 98/98/92 162/162/148
f 166/166/149 165/165/150 164/164/151
f 166/166/149 65/65/61 165/165/150
f 167/167/152 65/65/61 166/166/149
f 167/167/152 67/67/59 65/65/61
f 168/168/1 95/95/89 97/97/91
f 168/168/1 169/169/153 95/95/89
f 163/163/3 169/169/153 168/168/1
f 163/163/3 162/162/148 169/169/153
f 132/132/122 128/128/118 130/130/120
f 132/132/122 170/170/154 128/128/118
f 134/134/123 170/170/154 132/132/122
f 134/134/123 171/171/23 170/170/154
f 169/169/153 93/93/87 95/95/89
f 169/169/153 91/91/85 93/93/87
f 162/162/148 91/91/85 169/169/153
f 162/162/148 89/89/83 91/91/85
f 131/131/121 172/172/22 133/133/93
f 131/131/121 173/173/155 172/172/22
f 124/124/114 173/173/155 131/131/121
f 124/124/114 126/126/116 173/173/155
f 173/173/155 171/171/23 172/172/22
f 173/173/155 170/170/154 171/171/23
f 126/126/116 170/170/154 173/173/155
f 126/126/116 128/128/118 170/170/154
f 176/176/156 175/175/157 174/174/158
f 176/176/156 177/177/159 175/175/157
f 178/178/160 177/177/159 176/176/156
f 178/178/160 179/179/161 177/177/159
f 182/182/162 181/181/163 180/180/164
f 182/182/162 183/183/165 181/181/163
f 184/184/166 183/183/165 182/182/162
f 184/184/166 185/185/167 183/183/165
f 188/188/168 187/187/169 186/186/170
f 188/188/168 189/189/171 187/187/169
f 190/190/172 189/189/171 188/188/168
f 190/190/172 191/191/173 189/189/171
f 194/194/174 193/193/175 192/192/158
f 194/194/174 195/195/176 193/193/175
f 196/196/177 195/195/176 194/194/174
f 196/196/177 197/197/178 195/195/176
f 200/200/179 199/199/180 198/198/181
f 200/200/179 201/201/182 199/199/180
f 202/202/183 201/201/182 200/200/179
f 202/202/183 203/203/184 201/201/182
f 205/205/185 192/192/158 204/204/186
f 205/205/185 206/206/187 192/192/158
f 207/207/188 206/206/187 205/205/185
f 207/207/188 208/208/189 206/206/187
f 211/211/190 210/210/191 209/209/192
f 211/211/190 212/212/193 210/210/191
f 213/213/194 212/212/193 211/211/190
f 200/200/179 214/214/195 202/202/183
f 200/200/179 215/215/196 214/214/195
f 216/216/197 215/215/196 200/200/179
f 192/192/158 217/217/198 204/204/186
f 192/192/158 218/218/199 217/217/198
f 219/219/200 218/218/199 192/192/158
f 195/195/176 220/220/201 193/193/175
f 195/195/176 221/221/202 220/220/201
f 197/197/178 221/221/202 195/195/176
f 224/224/182 223/223/203 222/222/180
f 224/224/182 225/225/204 223/223/203
f 226/226/205 225/225/204 224/224/182
f 228/228/206 227/227/207 216/216/197
f 228/228/206 229/229/208 227/227/207
f 230/230/209 229/229/208 228/228/206
f 233/233/210 232/232/211 231/231/212
f 233/233/210 234/234/213 232/232/211
f 235/235/214 234/234/213 233/233/210
f 238/238/215 237/237/216 236/236/217
f 238/238/215 239/239/218 237/237/216
f 240/240/219 239/239/218 238/238/215
f 243/243/220 242/242/221 241/241/222
f 243/243/220 244/244/223 242/242/221
f 64/64/58 241/241/222 62/62/56
f 64/64/58 243/243/220 241/241/222
f 233/233/210 246/246/156 245/245/187
f 233/233/210 247/247/132 246/246/156
f 249/249/224 248/248/225 87/87/81
f 249/249/224 250/250/226 248/248/225
f 251/251/81 87/87/81 85/85/79
f 251/251/81 249/249/224 87/87/81
s 0
f 254/254/227 253/253/227 252/252/227
f 254/254/228 255/255/228 253/253/228
f 258/258/229 257/257/229 256/256/229
f 258/258/230 259/259/230 257/257/230
f 262/262/231 261/261/231 260/260/231
f 262/262/231 263/263/231 261/261/231
s 1
f 244/244/223 164/164/151 242/242/221
f 244/244/223 166/166/149 164/164/151
f 235/235/214 245/245/187 264/264/232
f 235/235/214 233/233/210 245/245/187
f 250/250/226 265/265/233 248/248/225
f 250/250/226 266/266/234 265/265/233
f 266/266/234 76/76/70 265/265/233
f 266/266/234 74/74/68 76/76/70
f 268/268/235 223/223/203 267/267/236
f 268/268/235 269/269/237 223/223/203
f 270/270/238 94/94/88 92/92/86
f 270/270/238 88/88/84 94/94/88
f 273/273/239 272/272/181 271/271/240
f 273/273/239 230/230/209 272/272/181
f 275/275/241 142/142/131 274/274/242
f 275/275/241 140/140/129 142/142/131
f 277/277/243 274/274/242 276/276/244
f 277/277/243 275/275/241 274/274/242
f 17/17/17 13/13/13 15/15/15
f 17/17/17 99/99/93 13/13/13
f 278/278/92 7/7/7 5/5/5
f 278/278/92 1/1/3 7/7/7
f 281/281/245 280/280/246 279/279/247
f 281/281/245 282/282/248 280/280/246
f 282/282/248 53/53/48 280/280/246
f 282/282/248 54/54/49 53/53/48
f 285/285/249 284/284/250 283/283/243
f 285/285/249 286/286/251 284/284/250
f 286/286/251 237/237/216 284/284/250
f 286/286/251 236/236/217 237/237/216
f 289/289/164 288/288/218 287/287/252
f 289/289/164 290/290/253 288/288/218
f 191/191/173 291/291/254 189/189/171
f 191/191/173 292/292/255 291/291/254
f 295/295/194 294/294/169 293/293/256
f 295/295/194 296/296/257 294/294/169
f 298/298/258 210/210/191 297/297/259
f 298/298/258 209/209/192 210/210/191
f 175/175/157 300/300/180 299/299/203
f 175/175/157 177/177/159 300/300/180
f 300/300/180 179/179/161 301/301/260
f 300/300/180 177/177/159 179/179/161
f 302/302/261 154/154/143 152/152/139
f 302/302/261 303/303/262 154/154/143
f 305/305/103 158/158/147 304/304/103
f 305/305/103 157/157/147 158/158/147
f 155/155/144 306/306/260 153/153/142
f 155/155/144 307/307/263 306/306/260
s 0
f 310/310/264 309/309/264 308/308/264
f 310/310/264 311/311/264 309/309/264
f 314/314/265 313/313/265 312/312/265
f 314/314/265 315/315/265 313/313/265
f 318/318/266 317/317/266 316/316/266
f 318/318/267 319/319/267 317/317/267
f 322/322/268 321/321/268 320/320/268
f 322/322/268 323/323/268 321/321/268
f 326/326/269 325/325/269 324/324/269
f 326/326/269 327/327/269 325/325/269
f 330/330/270 329/329/270 328/328/270
f 330/330/271 331/331/271 329/329/271
s 1
f 332/332/156 192/192/158 206/206/187
f 2/2/2 40/40/40 1/1/3
f 333/333/125 291/291/254 292/292/255
f 223/223/203 269/269/237 334/334/272
f 156/156/145 154/154/143 303/303/262
f 272/272/181 230/230/209 228/228/206
f 149/149/138 147/147/136 231/231/212
f 226/226/205 224/224/182 335/335/273
s 0
f 338/338/274 337/337/274 336/336/274
s 1
f 183/183/165 185/185/167 339/339/275
f 223/223/203 225/225/204 267/267/236
s 0
f 342/342/276 341/341/276 340/340/276
f 345/345/277 344/344/277 343/343/277
s 1
f 196/196/177 194/194/174 223/223/203
f 117/117/44 115/115/106 346/346/44
o shield_face
v -10.979527 11.963646 3.444658
v -9.031824 11.573814 4.014911
v -10.560730 8.019135 3.924237
v -6.463615 7.946769 5.068398
v -9.766442 3.744422 4.209692
v -6.463615 3.832047 5.338409
v -9.765830 -0.282676 4.178014
v -6.463615 -0.282676 5.410160
v -6.463615 -4.397398 5.372814
v -3.231807 -0.282676 6.283655
v -3.231807 -4.397398 6.128153
v 0.000000 -4.397398 6.496612
v -3.231807 -8.512120 5.827377
v 0.000000 -8.512120 6.297333
v -3.291953 -15.653006 5.154715
v 0.000000 -16.741564 5.346940
v 14.657843 8.091502 2.367712
v 13.797024 6.523424 2.619745
v 10.560730 8.019135 3.924237
v 13.069270 3.656797 2.832999
v 9.766442 3.744422 4.209692
v 9.765830 -0.282676 4.178014
v 6.463615 3.832047 5.338409
v 6.463615 -0.282676 5.410160
v 3.231807 -0.282676 6.283655
v 6.463615 -4.397398 5.372814
v 3.231807 -4.397398 6.128153
v 3.231807 -8.512120 5.827377
v 3.291953 -15.653006 5.154715
v -6.463615 12.188632 4.766839
v -3.231807 7.946769 5.924688
v -3.231807 3.832047 6.176647
v 0.000000 3.832047 6.664746
v 0.000000 -0.282674 6.695888
v -3.185067 13.990597 5.219200
v 0.000000 7.946769 6.358651
v 3.231807 7.946769 5.924688
v 3.231807 3.832047 6.176647
v 6.463615 7.946769 5.068398
v 12.927229 12.906089 2.874406
v 10.979527 11.963646 3.444658
v 9.031824 11.573814 4.014911
v 6.463615 12.188632 4.766839
v 3.185067 13.990597 5.219200
v 0.000000 16.366423 5.346937
v 9.689301 -4.422539 4.211504
v 6.463615 -8.512120 5.232615
v 8.947403 -8.673366 4.479825
v 9.148847 -11.792648 4.088870
v 10.485022 -10.426707 3.757322
v -10.485022 -10.426707 3.757322
v -11.431192 -8.834614 3.425773
v -8.947403 -8.673366 4.479825
v -9.689301 -4.422539 4.211504
v -6.463615 -8.512120 5.232615
v -12.927229 12.906089 2.874406
v -14.657843 8.091502 2.367712
v -13.797024 6.523424 2.619745
v -13.069270 3.656797 2.832999
v 11.431192 -8.834614 3.425773
v 12.406744 -6.650440 3.072798
v 12.914984 -4.447681 2.833177
v -13.068046 -0.282676 2.833177
v -12.914984 -4.447681 2.833177
v -9.148847 -11.792648 4.088870
v -6.463615 -13.955901 4.766841
v 13.068046 -0.282676 2.833177
v 6.463615 -13.955901 4.766841
v -12.406744 -6.650440 3.072798
vn -0.3243 0.0247 0.9456
vn -0.2711 0.0847 0.9588
vn -0.2943 0.0673 0.9533
vn -0.2619 0.0684 0.9627
vn -0.3492 0.0066 0.9370
vn -0.2850 0.0306 0.9580
vn -0.3621 -0.0024 0.9321
vn -0.2957 -0.0002 0.9553
vn -0.2781 -0.0231 0.9603
vn -0.1900 -0.0069 0.9818
vn -0.1744 -0.0446 0.9837
vn -0.0000 -0.0519 0.9987
vn -0.1561 -0.0761 0.9848
vn -0.0000 -0.0826 0.9966
vn -0.1457 -0.0959 0.9847
vn -0.0000 -0.1046 0.9945
vn 0.3243 0.0247 0.9456
vn 0.3599 -0.0344 0.9324
vn 0.3405 0.0003 0.9402
vn 0.3767 -0.0122 0.9263
vn 0.3492 0.0066 0.9370
vn 0.3618 -0.0024 0.9323
vn 0.2850 0.0306 0.9580
vn 0.2956 -0.0002 0.9553
vn 0.1899 -0.0069 0.9818
vn 0.2781 -0.0231 0.9603
vn 0.1744 -0.0446 0.9837
vn 0.1561 -0.0761 0.9848
vn 0.1457 -0.0959 0.9847
vn -0.2503 0.0883 0.9641
vn -0.1866 0.0855 0.9787
vn -0.1974 0.0415 0.9794
vn -0.0000 0.0420 0.9991
vn -0.0000 -0.0132 0.9999
vn -0.1758 0.1068 0.9786
vn -0.0000 0.0930 0.9957
vn 0.1866 0.0855 0.9787
vn 0.1974 0.0415 0.9794
vn 0.2619 0.0684 0.9627
vn 0.2943 0.0673 0.9533
vn 0.3247 0.0457 0.9447
vn 0.2711 0.0847 0.9588
vn 0.2503 0.0883 0.9641
vn 0.1758 0.1068 0.9786
vn 0.0001 0.1184 0.9930
vn 0.3675 -0.0070 0.9300
vn 0.2488 -0.0606 0.9667
vn 0.3478 -0.0506 0.9362
vn 0.3410 -0.0893 0.9358
vn 0.3601 -0.0676 0.9305
vn -0.3478 -0.0506 0.9362
vn -0.3831 -0.0393 0.9229
vn -0.3601 -0.0676 0.9305
vn -0.3675 -0.0070 0.9300
vn -0.2488 -0.0606 0.9667
vn -0.3405 0.0003 0.9402
vn -0.3247 0.0457 0.9447
vn -0.3600 -0.0341 0.9323
vn -0.3767 -0.0123 0.9263
vn 0.3831 -0.0393 0.9229
vn 0.3837 -0.0040 0.9235
vn 0.3889 0.0013 0.9213
vn -0.3829 -0.0053 0.9238
vn -0.3890 0.0012 0.9212
vn -0.3410 -0.0893 0.9358
vn -0.2360 -0.0882 0.9677
vn 0.3829 -0.0053 0.9238
vn 0.2360 -0.0882 0.9677
vn -0.3837 -0.0040 0.9235
vt 0.746094 0.878906
vt 0.613281 0.855469
vt 0.718750 0.750000
vt 0.437500 0.746094
vt 0.664062 0.621094
vt 0.437500 0.625000
vt 0.664062 0.500000
vt 0.437500 0.500000
vt 0.437500 0.375000
vt 0.230469 0.500000
vt 0.230469 0.375000
vt 0.023438 0.375000
vt 0.230469 0.250000
vt 0.023438 0.250000
vt 0.230469 0.042969
vt 0.023438 0.000000
vt 1.000000 0.753906
vt 0.937500 0.703125
vt 0.718750 0.750000
vt 0.890625 0.617188
vt 0.664062 0.621094
vt 0.664062 0.500000
vt 0.437500 0.625000
vt 0.437500 0.500000
vt 0.230469 0.500000
vt 0.437500 0.375000
vt 0.230469 0.375000
vt 0.230469 0.250000
vt 0.230469 0.042969
vt 0.437500 0.875000
vt 0.230469 0.746094
vt 0.230469 0.625000
vt 0.023438 0.625000
vt 0.023438 0.500000
vt 0.230469 0.937500
vt 0.023438 0.746094
vt 0.230469 0.746094
vt 0.230469 0.625000
vt 0.437500 0.746094
vt 0.878906 0.898438
vt 0.746094 0.878906
vt 0.613281 0.855469
vt 0.437500 0.875000
vt 0.230469 0.937500
vt 0.023438 1.000000
vt 0.664062 0.375000
vt 0.437500 0.250000
vt 0.609375 0.261719
vt 0.609375 0.167969
vt 0.691406 0.199219
vt 0.691406 0.199219
vt 0.769531 0.261719
vt 0.609375 0.261719
vt 0.664062 0.375000
vt 0.437500 0.250000
vt 0.878906 0.898438
vt 1.000000 0.753906
vt 0.937500 0.703125
vt 0.890625 0.617188
vt 0.769531 0.261719
vt 0.832031 0.316406
vt 0.890625 0.386719
vt 0.890625 0.500000
vt 0.890625 0.386719
vt 0.609375 0.167969
vt 0.437500 0.085938
vt 0.890625 0.500000
vt 0.437500 0.085938
vt 0.832031 0.316406
s 1
usemtl VshiMCMAT
f 349/349/278 348/348/279 347/347/280
f 349/349/278 350/350/281 348/348/279
f 351/351/282 350/350/281 349/349/278
f 351/351/282 352/352/283 350/350/281
f 353/353/284 352/352/283 351/351/282
f 353/353/284 354/354/285 352/352/283
f 355/355/286 354/354/285 353/353/284
f 355/355/286 356/356/287 354/354/285
f 357/357/288 356/356/287 355/355/286
f 357/357/288 358/358/289 356/356/287
f 359/359/290 358/358/289 357/357/288
f 359/359/290 360/360/291 358/358/289
f 361/361/292 360/360/291 359/359/290
f 361/361/292 362/362/293 360/360/291
f 365/365/294 364/364/295 363/363/296
f 365/365/294 366/366/297 364/364/295
f 367/367/298 366/366/297 365/365/294
f 367/367/298 368/368/299 366/366/297
f 369/369/300 368/368/299 367/367/298
f 369/369/300 370/370/301 368/368/299
f 371/371/302 370/370/301 369/369/300
f 371/371/302 372/372/303 370/370/301
f 373/373/304 372/372/303 371/371/302
f 373/373/304 374/374/305 372/372/303
f 360/360/291 374/374/305 373/373/304
f 360/360/291 375/375/306 374/374/305
f 362/362/293 375/375/306 360/360/291
f 350/350/281 376/376/307 348/348/279
f 350/350/281 377/377/308 376/376/307
f 378/378/309 377/377/308 350/350/281
f 378/378/309 379/379/310 377/377/308
f 356/356/287 379/379/310 378/378/309
f 356/356/287 380/380/311 379/379/310
f 358/358/289 380/380/311 356/356/287
f 358/358/289 373/373/304 380/380/311
f 360/360/291 373/373/304 358/358/289
f 377/377/308 381/381/312 376/376/307
f 377/377/308 382/382/313 381/381/312
f 379/379/310 382/382/313 377/377/308
f 379/379/310 383/383/314 382/382/313
f 384/384/315 383/383/314 379/379/310
f 384/384/315 385/385/316 383/383/314
f 369/369/300 385/385/316 384/384/315
f 369/369/300 367/367/298 385/385/316
f 387/387/317 363/363/296 386/386/318
f 387/387/317 365/365/294 363/363/296
f 388/388/319 365/365/294 387/387/317
f 388/388/319 385/385/316 365/365/294
f 389/389/320 385/385/316 388/388/319
f 389/389/320 383/383/314 385/385/316
f 390/390/321 383/383/314 389/389/320
f 390/390/321 391/391/322 383/383/314
f 372/372/303 368/368/299 370/370/301
f 372/372/303 392/392/323 368/368/299
f 393/393/324 392/392/323 372/372/303
f 393/393/324 394/394/325 392/392/323
f 395/395/326 394/394/325 393/393/324
f 395/395/326 396/396/327 394/394/325
f 399/399/328 398/398/329 397/397/330
f 399/399/328 400/400/331 398/398/329
f 401/401/332 400/400/331 399/399/328
f 401/401/332 355/355/286 400/400/331
f 357/357/288 355/355/286 401/401/332
f 403/403/333 347/347/280 402/402/334
f 403/403/333 349/349/278 347/347/280
f 404/404/335 349/349/278 403/403/333
f 404/404/335 405/405/336 349/349/278
f 406/406/337 394/394/325 396/396/327
f 406/406/337 392/392/323 394/394/325
f 407/407/338 392/392/323 406/406/337
f 407/407/338 408/408/339 392/392/323
f 405/405/336 351/351/282 349/349/278
f 405/405/336 353/353/284 351/351/282
f 409/409/340 353/353/284 405/405/336
f 409/409/340 410/410/341 353/353/284
f 411/411/342 399/399/328 397/397/330
f 411/411/342 401/401/332 399/399/328
f 412/412/343 401/401/332 411/411/342
f 412/412/343 361/361/292 401/401/332
f 368/368/299 413/413/344 366/366/297
f 368/368/299 408/408/339 413/413/344
f 392/392/323 408/408/339 368/368/299
f 374/374/305 393/393/324 372/372/303
f 374/374/305 414/414/345 393/393/324
f 375/375/306 414/414/345 374/374/305
f 378/378/309 354/354/285 356/356/287
f 378/378/309 352/352/283 354/354/285
f 350/350/281 352/352/283 378/378/309
f 400/400/331 415/415/346 398/398/329
f 400/400/331 410/410/341 415/415/346
f 353/353/284 410/410/341 400/400/331
f 401/401/332 359/359/290 357/357/288
f 401/401/332 361/361/292 359/359/290
f 380/380/311 371/371/302 379/379/310
f 380/380/311 373/373/304 371/371/302
f 382/382/313 391/391/322 381/381/312
f 382/382/313 383/383/314 391/391/322
f 384/384/315 371/371/302 369/369/300
f 384/384/315 379/379/310 371/371/302
f 395/395/326 393/393/324 414/414/345
f 385/385/316 367/367/298 365/365/294
f 353/353/284 400/400/331 355/355/286
o unknown_(reflection_effect_maybe)
v -10.979527 11.963646 3.327648
v -9.031824 11.573814 3.897900
v -10.560730 8.019135 3.807226
v -6.463615 7.946769 4.951386
v -9.766443 3.744422 4.092682
v -6.463615 3.832047 5.221398
v -9.765830 -0.282676 4.061002
v -6.463615 -0.282676 5.293149
v -6.463615 -4.397397 5.255803
v -3.231807 -0.282676 6.166644
v -3.231807 -4.397397 6.011142
v 0.000000 -4.397397 6.379601
v -3.231807 -8.512119 5.710366
v 0.000000 -8.512119 6.180324
v -3.291953 -15.653006 5.037703
v 0.000000 -16.741564 5.229928
v 14.657843 8.091503 2.250701
v 13.797024 6.523424 2.502734
v 10.560730 8.019135 3.807226
v 13.069271 3.656797 2.715988
v 9.766443 3.744422 4.092682
v 9.765830 -0.282676 4.061002
v 6.463615 3.832047 5.221398
v 6.463615 -0.282676 5.293149
v 3.231807 -0.282676 6.166644
v 6.463615 -4.397397 5.255803
v 3.231807 -4.397397 6.011142
v 3.231807 -8.512119 5.710366
v 3.291953 -15.653006 5.037703
v -6.463615 12.188631 4.649828
v -3.231807 7.946769 5.807678
v -3.231807 3.832047 6.059636
v 0.000000 3.832047 6.547736
v 0.000000 -0.282674 6.578877
v 12.927229 12.906089 2.757395
v 10.979527 11.963646 3.327648
v 9.031824 11.573814 3.897900
v 6.463615 7.946769 4.951386
v 6.463615 12.188631 4.649828
v 3.231807 7.946769 5.807678
v 3.185067 13.990597 5.102189
v 0.000000 16.366425 5.229926
v -3.185067 13.990597 5.102189
v 0.000000 7.946769 6.241640
v 3.231807 3.832047 6.059636
v 6.463615 -13.955903 4.649830
v 6.463615 -8.512119 5.115603
v 9.148847 -11.792649 3.971859
v 8.947403 -8.673366 4.362813
v 10.480932 -10.432142 3.640311
v 11.431190 -8.834614 3.308762
v 13.068045 -0.282676 2.716167
v 12.914987 -4.447681 2.716167
v 9.689301 -4.422539 4.094492
v 12.406744 -6.650440 2.955788
v -10.480932 -10.432142 3.640311
v -11.431190 -8.834614 3.308762
v -8.947403 -8.673366 4.362813
v -9.689301 -4.422539 4.094492
v -6.463615 -8.512119 5.115603
v -12.927229 12.906089 2.757395
v -14.657843 8.091503 2.250701
v -13.797024 6.523424 2.502734
v -13.069271 3.656797 2.715988
v -13.068045 -0.282676 2.716167
v -12.914987 -4.447681 2.716167
v -9.148847 -11.792649 3.971859
v -6.463615 -13.955903 4.649830
v -12.406744 -6.650440 2.955788
vn -0.3243 0.0247 0.9456
vn -0.2711 0.0847 0.9588
vn -0.2943 0.0673 0.9533
vn -0.2619 0.0684 0.9627
vn -0.3492 0.0066 0.9370
vn -0.2850 0.0306 0.9580
vn -0.3621 -0.0024 0.9321
vn -0.2957 -0.0002 0.9553
vn -0.2781 -0.0231 0.9603
vn -0.1900 -0.0069 0.9818
vn -0.1744 -0.0446 0.9837
vn -0.0000 -0.0519 0.9987
vn -0.1561 -0.0761 0.9848
vn -0.0000 -0.0826 0.9966
vn -0.1457 -0.0959 0.9847
vn -0.0000 -0.1046 0.9945
vn 0.3243 0.0247 0.9456
vn 0.3598 -0.0345 0.9324
vn 0.3405 0.0003 0.9402
vn 0.3767 -0.0123 0.9263
vn 0.3492 0.0066 0.9370
vn 0.3618 -0.0024 0.9322
vn 0.2850 0.0306 0.9580
vn 0.2956 -0.0002 0.9553
vn 0.1899 -0.0070 0.9818
vn 0.2780 -0.0232 0.9603
vn 0.1744 -0.0446 0.9837
vn 0.1561 -0.0761 0.9848
vn 0.1457 -0.0959 0.9847
vn -0.2502 0.0883 0.9642
vn -0.1867 0.0855 0.9787
vn -0.1974 0.0415 0.9794
vn -0.0000 0.0420 0.9991
vn -0.0000 -0.0132 0.9999
vn 0.2943 0.0673 0.9533
vn 0.3247 0.0457 0.9447
vn 0.2711 0.0847 0.9588
vn 0.2619 0.0684 0.9627
vn 0.2502 0.0883 0.9642
vn 0.1866 0.0855 0.9787
vn 0.1758 0.1068 0.9786
vn 0.0003 0.1186 0.9929
vn -0.1758 0.1068 0.9786
vn -0.0000 0.0930 0.9957
vn 0.1974 0.0415 0.9794
vn 0.2360 -0.0882 0.9677
vn 0.2488 -0.0606 0.9667
vn 0.3410 -0.0893 0.9358
vn 0.3478 -0.0506 0.9362
vn 0.3603 -0.0680 0.9304
vn 0.3831 -0.0393 0.9229
vn 0.3829 -0.0053 0.9238
vn 0.3891 0.0009 0.9212
vn 0.3675 -0.0070 0.9300
vn 0.3837 -0.0039 0.9234
vn -0.3478 -0.0506 0.9362
vn -0.3831 -0.0393 0.9229
vn -0.3603 -0.0680 0.9304
vn -0.3675 -0.0070 0.9300
vn -0.2488 -0.0606 0.9667
vn -0.3405 0.0003 0.9402
vn -0.3247 0.0457 0.9447
vn -0.3601 -0.0341 0.9323
vn -0.3767 -0.0122 0.9263
vn -0.3829 -0.0053 0.9238
vn -0.3891 0.0009 0.9212
vn -0.3410 -0.0893 0.9358
vn -0.2360 -0.0882 0.9677
vn -0.3837 -0.0039 0.9234
vt 0.125000 0.878906
vt 0.191406 0.855469
vt 0.136719 0.750000
vt 0.277344 0.746094
vt 0.164062 0.621094
vt 0.277344 0.625000
vt 0.164062 0.500000
vt 0.277344 0.500000
vt 0.277344 0.375000
vt 0.386719 0.500000
vt 0.386719 0.375000
vt 0.500000 0.375000
vt 0.386719 0.250000
vt 0.500000 0.250000
vt 0.386719 0.042969
vt 0.500000 0.000000
vt 1.000000 0.753906
vt 0.968750 0.703125
vt 0.859375 0.750000
vt 0.945312 0.617188
vt 0.832031 0.621094
vt 0.832031 0.500000
vt 0.718750 0.625000
vt 0.718750 0.500000
vt 0.609375 0.500000
vt 0.718750 0.375000
vt 0.609375 0.375000
vt 0.609375 0.250000
vt 0.609375 0.042969
vt 0.277344 0.875000
vt 0.386719 0.746094
vt 0.386719 0.625000
vt 0.500000 0.625000
vt 0.500000 0.500000
vt 0.937500 0.898438
vt 0.871094 0.878906
vt 0.804688 0.855469
vt 0.718750 0.746094
vt 0.718750 0.875000
vt 0.609375 0.746094
vt 0.609375 0.937500
vt 0.500000 1.000000
vt 0.386719 0.937500
vt 0.500000 0.746094
vt 0.609375 0.625000
vt 0.718750 0.085938
vt 0.718750 0.250000
vt 0.804688 0.167969
vt 0.804688 0.250000
vt 0.843750 0.210938
vt 0.886719 0.250000
vt 0.945312 0.500000
vt 0.945312 0.375000
vt 0.832031 0.375000
vt 0.914062 0.312500
vt 0.152344 0.210938
vt 0.109375 0.250000
vt 0.191406 0.250000
vt 0.164062 0.375000
vt 0.277344 0.250000
vt 0.058594 0.898438
vt 0.000000 0.753906
vt 0.027344 0.703125
vt 0.050781 0.617188
vt 0.050781 0.500000
vt 0.050781 0.375000
vt 0.191406 0.167969
vt 0.277344 0.085938
vt 0.082031 0.312500
s 1
usemtl VshiMBMAT
f 418/418/347 417/417/348 416/416/349
f 418/418/347 419/419/350 417/417/348
f 420/420/351 419/419/350 418/418/347
f 420/420/351 421/421/352 419/419/350
f 422/422/353 421/421/352 420/420/351
f 422/422/353 423/423/354 421/421/352
f 424/424/355 423/423/354 422/422/353
f 424/424/355 425/425/356 423/423/354
f 426/426/357 425/425/356 424/424/355
f 426/426/357 427/427/358 425/425/356
f 428/428/359 427/427/358 426/426/357
f 428/428/359 429/429/360 427/427/358
f 430/430/361 429/429/360 428/428/359
f 430/430/361 431/431/362 429/429/360
f 434/434/363 433/433/364 432/432/365
f 434/434/363 435/435/366 433/433/364
f 436/436/367 435/435/366 434/434/363
f 436/436/367 437/437/368 435/435/366
f 438/438/369 437/437/368 436/436/367
f 438/438/369 439/439/370 437/437/368
f 440/440/371 439/439/370 438/438/369
f 440/440/371 441/441/372 439/439/370
f 442/442/373 441/441/372 440/440/371
f 442/442/373 443/443/374 441/441/372
f 429/429/360 443/443/374 442/442/373
f 429/429/360 444/444/375 443/443/374
f 431/431/362 444/444/375 429/429/360
f 419/419/350 445/445/376 417/417/348
f 419/419/350 446/446/377 445/445/376
f 447/447/378 446/446/377 419/419/350
f 447/447/378 448/448/379 446/446/377
f 425/425/356 448/448/379 447/447/378
f 425/425/356 449/449/380 448/448/379
f 427/427/358 449/449/380 425/425/356
f 427/427/358 442/442/373 449/449/380
f 429/429/360 442/442/373 427/427/358
f 451/451/381 432/432/365 450/450/382
f 451/451/381 434/434/363 432/432/365
f 452/452/383 434/434/363 451/451/381
f 452/452/383 453/453/384 434/434/363
f 454/454/385 453/453/384 452/452/383
f 454/454/385 455/455/386 453/453/384
f 456/456/387 455/455/386 454/454/385
f 456/456/387 457/457/388 455/455/386
f 446/446/377 458/458/389 445/445/376
f 446/446/377 459/459/390 458/458/389
f 448/448/379 459/459/390 446/446/377
f 448/448/379 455/455/386 459/459/390
f 460/460/391 455/455/386 448/448/379
f 460/460/391 453/453/384 455/455/386
f 438/438/369 453/453/384 460/460/391
f 438/438/369 436/436/367 453/453/384
f 461/461/392 443/443/374 444/444/375
f 461/461/392 462/462/393 443/443/374
f 463/463/394 462/462/393 461/461/392
f 463/463/394 464/464/395 462/462/393
f 465/465/396 464/464/395 463/463/394
f 465/465/396 466/466/397 464/464/395
f 437/437/368 467/467/398 435/435/366
f 437/437/368 468/468/399 467/467/398
f 469/469/400 468/468/399 437/437/368
f 469/469/400 470/470/401 468/468/399
f 466/466/397 470/470/401 469/469/400
f 473/473/402 472/472/403 471/471/404
f 473/473/402 474/474/405 472/472/403
f 475/475/406 474/474/405 473/473/402
f 475/475/406 424/424/355 474/474/405
f 426/426/357 424/424/355 475/475/406
f 477/477/407 416/416/349 476/476/408
f 477/477/407 418/418/347 416/416/349
f 478/478/409 418/418/347 477/477/407
f 478/478/409 479/479/410 418/418/347
f 479/479/410 420/420/351 418/418/347
f 479/479/410 422/422/353 420/420/351
f 480/480/411 422/422/353 479/479/410
f 480/480/411 481/481/412 422/422/353
f 482/482/413 473/473/402 471/471/404
f 482/482/413 475/475/406 473/473/402
f 483/483/414 475/475/406 482/482/413
f 483/483/414 430/430/361 475/475/406
f 447/447/378 423/423/354 425/425/356
f 447/447/378 421/421/352 423/423/354
f 419/419/350 421/421/352 447/447/378
f 474/474/405 484/484/415 472/472/403
f 474/474/405 481/481/412 484/484/415
f 422/422/353 481/481/412 474/474/405
f 428/428/359 475/475/406 430/430/361
f 428/428/359 426/426/357 475/475/406
f 449/449/380 440/440/371 448/448/379
f 449/449/380 442/442/373 440/440/371
f 459/459/390 457/457/388 458/458/389
f 459/459/390 455/455/386 457/457/388
f 460/460/391 440/440/371 438/438/369
f 460/460/391 448/448/379 440/440/371
f 441/441/372 462/462/393 464/464/395
f 441/441/372 443/443/374 462/462/393
f 469/469/400 464/464/395 466/466/397
f 469/469/400 441/441/372 464/464/395
f 439/439/370 469/469/400 437/437/368
f 439/439/370 441/441/372 469/469/400
f 453/453/384 436/436/367 434/434/363
f 422/422/353 474/474/405 424/424/355
